<?xml version="1.0" encoding="UTF-8" standalone="no"?>
<svg
   xmlns:dc="http://purl.org/dc/elements/1.1/"
   xmlns:cc="http://creativecommons.org/ns#"
   xmlns:rdf="http://www.w3.org/1999/02/22-rdf-syntax-ns#"
   xmlns:svg="http://www.w3.org/2000/svg"
   xmlns="http://www.w3.org/2000/svg"
   xmlns:xlink="http://www.w3.org/1999/xlink"
   id="svg2"
   version="1.1"
   viewBox="0 0 24 24">
  <metadata
     id="metadata4142">
    <rdf:RDF>
      <cc:Work
         rdf:about="">
        <dc:format>image/svg+xml</dc:format>
        <dc:type
           rdf:resource="http://purl.org/dc/dcmitype/StillImage" />
        <dc:title></dc:title>
      </cc:Work>
    </rdf:RDF>
  </metadata>
  <defs
     id="defs4140">
    <linearGradient
       id="linearGradient4154">
      <stop
         id="stop4156"
         offset="0"
         style="stop-color:#5a21fa;stop-opacity:1" />
      <stop
         id="stop4158"
         offset="1"
         style="stop-color:#b23bed;stop-opacity:1" />
    </linearGradient>
    <linearGradient
       gradientUnits="userSpaceOnUse"
       y2="27.559322"
       x2="27.661018"
       y1="-8.4406776"
       x1="-8.7457628"
       id="linearGradient4160"
       xlink:href="#linearGradient4154" />
  </defs>
  <path
     d="M 22.290343,12.126265 A 10.28301,10.139193 0 0 1 12.010452,22.265457 10.28301,10.139193 0 0 1 1.7243261,12.132415 10.28301,10.139193 0 0 1 11.997978,1.9870762 10.28301,10.139193 0 0 1 22.290336,12.113965"
     id="path4166"
     style="opacity:1;fill:#ffffff;fill-opacity:1;stroke:none;stroke-width:25;stroke-linecap:butt;stroke-linejoin:miter;stroke-miterlimit:4;stroke-dasharray:none;stroke-opacity:1" />
  <path
     style="fill-opacity:1;fill:url(#linearGradient4160)"
     id="path4"
     d="M 12.008475,0.49152542 A 11.5,11.5 0 0 0 0.50847458,11.991525 a 11.5,11.5 0 0 0 11.50000042,11.5 11.5,11.5 0 0 0 11.5,-11.5 11.5,11.5 0 0 0 -11.5,-11.49999958 z m 0.0021,3.94641698 c 0.58309,0.02204 0.95996,0.202428 1.19341,0.397833 0.27719,0.203061 0.43773,0.384924 0.597018,0.696229 0.549352,1.071704 -0.04139,2.255437 -0.845348,2.660716 -0.525646,0.224509 -0.85702,0.2000525 -1.094224,0.323342 -0.404746,0.203435 -0.769846,0.612816 -0.945186,1.044679 -0.32873,0.8098536 -0.28032,1.4270536 0.52239,2.1882536 0.1495,0.13182 0.325091,0.22877 0.488391,0.34216 l 0,2.5e-4 c 1.3e-4,1.2e-4 2.57e-4,0 2.57e-4,0 2.58e-4,0 3.81e-4,-1.3e-4 7.6e-4,-2.5e-4 -2.58e-4,-5.1e-4 -5.02e-4,-8.8e-4 -7.6e-4,-9.6e-4 -1.21e-4,5e-4 -1.21e-4,7.6e-4 -2.57e-4,9.6e-4 l -0.0024,-0.006 c 9.5e-4,0.002 0.0016,0.003 0.0026,0.005 0.114015,-0.63552 0.07084,-0.79229 0.259624,-1.2765 0.442362,-1.4255196 2.850751,-2.9280904 4.793485,-2.6294738 0.684806,0.105225 1.316944,0.3860454 1.895106,1.0053876 0.04139,0.05127 0.19942,0.2108332 0.357459,0.6160756 0.159281,0.5613906 0.104101,0.9753906 -0.01006,1.2581006 -0.10786,0.3256 -0.23077,0.53468 -0.47786,0.78264 -0.84911,0.854 -2.157302,0.657215 -2.79191,0.0182 -0.37502,-0.430708 -0.45403,-0.753168 -0.64467,-0.94067 -0.31857,-0.32209 -0.821525,-0.54258 -1.28561,-0.57594 -0.87169,-0.0625 -1.444208,0.17433 -1.920112,1.173 -0.07917,0.18312 -0.117148,0.38015 -0.174588,0.57067 2.55e-4,0 3.75e-4,1.2e-4 7.5e-4,0 0.0024,-0.002 0.0044,-0.004 0.0068,-0.006 -0.0021,0.002 -0.0031,0.003 -0.0054,0.005 0.639657,-0.0879 0.775236,-0.177476 1.293656,-0.14762 1.492509,-0.0198 3.6661,1.8055 3.98216,3.74574 0.11163,0.68356 0.04015,1.37214 -0.36999,2.11466 -0.03635,0.05395 -0.13922,0.25461 -0.475354,0.529283 -0.484132,0.324837 -0.895516,0.400097 -1.199066,0.380027 -0.34366,-0.003 -0.580712,-0.0552 -0.893014,-0.21322 -1.074866,-0.543078 -1.29145,-1.84872 -0.879216,-2.64893 0.29349,-0.490406 0.57569,-0.666 0.69484,-0.905556 0.2082,-0.40135 0.262134,-0.946937 0.15051,-1.399744 -0.209456,-0.848736 -0.61206,-1.31972 -1.708808,-1.46366 -0.198672,-0.0187 -0.397964,0.006 -0.596886,0.01026 -1.27e-4,1.25e-4 -2.56e-4,1.25e-4 -2.56e-4,2.56e-4 0.0024,0.002 0.0047,0.003 0.0071,0.005 -0.0027,-9.59e-4 -0.0042,-0.002 -0.0068,-0.004 0.281703,0.58259 0.408747,0.68356 0.540827,1.18728 0.480115,1.4123 -0.58447,4.04359 -2.332393,4.94414 -0.6156461,0.317333 -1.2920952,0.461573 -2.1245992,0.301033 -0.063168,-0.01726 -0.2854058,-0.05367 -0.6511058,-0.288459 -0.4588619,-0.36033 -0.65762,-0.72737 -0.731795,-1.0235 -0.1043622,-0.32775 -0.1275542,-0.56829 -0.073696,-0.91425 0.185246,-1.19025 1.359875,-1.799841 2.2481541,-1.655615 0.5572519,0.127935 0.8108557,0.342415 1.07525,0.381295 0.4470049,0.074 0.9827699,-0.04265 1.3783699,-0.28974 0.742126,-0.46155 1.065574,-0.98957 0.863786,-2.076701 -0.04364,-0.195031 -0.12906,-0.377399 -0.19453,-0.565659 -2.58e-4,1.2e-4 -2.58e-4,2.6e-4 -5.02e-4,5e-4 -7.6e-4,0.002 -0.0013,0.005 -0.0021,0.007 5.01e-4,-0.002 6.19e-4,-0.004 9.59e-4,-0.006 -0.464565,0.446133 -0.522269,0.598263 -0.959199,0.878836 -1.19552,0.893167 -4.0270118,0.693837 -5.423591,-0.69 -0.4919624,-0.486847 -0.8381124,-1.085807 -0.9425708,-1.927217 -0.0025,-0.06517 -0.037279,-0.28789 0.073217,-0.7084026 0.2011594,-0.547697 0.4894254,-0.8503385 0.7474094,-1.012201 0.278587,-0.2001 0.501304,-0.296796 0.846591,-0.352475 1.1891,-0.191571 2.132292,0.736767 2.2694295,1.626291 0.05089,0.5694386 -0.074653,0.8770686 -0.03067,1.1406086 0.068357,0.44775 0.344789,0.9211 0.701241,1.2214 0.668629,0.56302 1.2706559,0.70763 2.2426909,0.1796 0.171455,-0.10147 0.317825,-0.23843 0.475975,-0.35871 -1.21e-4,-1.3e-4 -2.57e-4,-1.3e-4 -5.01e-4,-2.6e-4 -0.0025,1.3e-4 -0.005,5e-4 -0.0073,5e-4 0.0025,-3.8e-4 0.0038,-6.2e-4 0.0063,-9.6e-4 -0.568246,-0.30475 -0.731165,-0.31241 -1.133665,-0.64112 -1.2185174,-0.86154 -1.9036294,-3.6155046 -1.0190874,-5.3714586 0.3116504,-0.6185085 0.7737624,-1.13275 1.5413824,-1.492125 0.06133,-0.022425 0.26213,-0.124296 0.69622,-0.149126 z m -0.0853,7.6536326 c 3.75e-4,2.6e-4 6.19e-4,3.7e-4 9.6e-4,5e-4 l 7.54e-4,0 0,-7.6e-4 c -6.23e-4,1.3e-4 -9.55e-4,2.6e-4 -0.0018,2.6e-4 z m 0.0016,7.6e-4 c -1.23e-4,9.6e-4 0,0.002 -2.57e-4,0.003 l 9.59e-4,-9.6e-4 c 1.26e-4,-3.71e-4 1.26e-4,-6.2e-4 2.57e-4,-9.59e-4 -3.77e-4,-2.58e-4 -6.2e-4,-2.58e-4 -9.6e-4,-4.97e-4 z m 9.6e-4,5e-4 c 1.25e-4,-2.6e-4 1.25e-4,-5e-4 2.58e-4,-7.6e-4 l -5.01e-4,0 c 1.25e-4,2.6e-4 1.25e-4,5e-4 2.58e-4,7.6e-4 z m 0,0 c 0,1.2e-4 1.25e-4,3.8e-4 2.58e-4,4.9e-4 l 2.57e-4,-2.55e-4 c -2.57e-4,-1.25e-4 -3.8e-4,-1.25e-4 -5e-4,-2.45e-4 z m 5.01e-4,2.5e-4 c 3.76e-4,2.6e-4 6.2e-4,2.6e-4 9.58e-4,5e-4 -2.56e-4,-3.7e-4 -3.81e-4,-6.2e-4 -4.99e-4,-9.6e-4 -2.58e-4,2.5e-4 -3.81e-4,2.5e-4 -5.02e-4,5e-4 z m 5e-4,-4.9e-4 2.56e-4,-2.6e-4 c -1.26e-4,-1.3e-4 -3.8e-4,-1.3e-4 -4.99e-4,-2.6e-4 1.23e-4,2.6e-4 1.23e-4,3.8e-4 2.56e-4,5e-4 z m -2.57e-4,-5.1e-4 c -1.28e-4,-1.3e-4 -3.8e-4,-1.3e-4 -5e-4,-2.5e-4 l 0,2.5e-4 5e-4,0 z m 0,0 7.56e-4,0 c 4.99e-4,-5e-4 6.24e-4,-7.6e-4 0.0012,-9.6e-4 -5e-4,1.2e-4 -8.79e-4,2.6e-4 -0.0014,2.6e-4 -2.56e-4,2.6e-4 -4.99e-4,3.8e-4 -7.55e-4,5e-4 1.25e-4,2.6e-4 1.25e-4,3.8e-4 2.56e-4,4.95e-4 z m -9.58e-4,0 c 1.23e-4,0 1.23e-4,-1.3e-4 2.56e-4,-2.5e-4 -2.56e-4,-1.3e-4 -3.79e-4,-3.8e-4 -5e-4,-5.1e-4 1.25e-4,2.6e-4 1.25e-4,5.1e-4 2.58e-4,7.6e-4 z" />
</svg>
