<?xml version="1.0" encoding="utf-8"?>
<!-- Generator: Adobe Illustrator 18.0.0, SVG Export Plug-In . SVG Version: 6.00 Build 0)  -->
<!DOCTYPE svg PUBLIC "-//W3C//DTD SVG 1.1//EN" "http://www.w3.org/Graphics/SVG/1.1/DTD/svg11.dtd">
<svg version="1.1" id="Layer_1" xmlns="http://www.w3.org/2000/svg" xmlns:xlink="http://www.w3.org/1999/xlink" x="0px" y="0px"
	 width="826px" height="103.8px" viewBox="0 0 826 103.8" enable-background="new 0 0 826 103.8" xml:space="preserve">
<g>
	<rect x="26.6" y="0" fill="#E43112" width="25.9" height="25.9"/>
	<rect x="0.7" y="51.8" fill="#4B3E28" width="25.9" height="25.9"/>
	<rect x="52.4" y="77.9" fill="#A18126" width="25.9" height="25.9"/>
</g>
<g>
	<path fill="#111111" d="M169.1,63.4c0,4.4-1.2,8.1-3.2,11.3c-2,3.2-5.3,6.1-9.3,7.7c-4,1.6-8.9,2.8-14.6,2.8
		c-4.4,0-8.5-0.4-11.7-0.8s-6.5-1.6-9.7-3.2V64.6c3.6,2,7.3,3.2,11.3,4.4c4,1.2,7.3,1.6,10.5,1.6c2.8,0,4.9-0.4,6.1-1.6
		c1.2-1.2,2-2,2-3.6c0-0.8-0.4-1.6-0.8-2.4c-0.4-0.8-1.2-1.6-2.4-2c-1.2-0.4-4-2-9.3-4.4c-4.4-2-8.1-4-10.1-6.1c-2-2-4-4-4.9-6.5
		c-0.8-2.4-1.6-5.3-1.6-8.9c0-6.5,2.4-11.3,6.9-15c4.4-3.6,10.9-5.3,19-5.3c7.3,0,14.6,1.6,21.8,4.9l-5.7,14.6
		c-6.5-2.8-12.1-4.4-16.6-4.4c-2.4,0-4,0.4-5.3,1.2c-1.2,0.8-2,1.2-2,2.4s0.8,2.4,2,3.6c1.2,1.2,5.3,3.2,11.3,6.1
		c6.1,2.8,10.1,5.7,12.5,8.5C167.9,54.5,169.1,58.9,169.1,63.4z"/>
	<path fill="#111111" d="M232.4,37.2c0,7.7-2.4,13.7-6.9,17.8s-10.9,6.5-19.4,6.5h-5.3v23h-18.6v-69h23.9c8.9,0,15.4,2,19.8,5.7
		C230.4,24.7,232.4,30.3,232.4,37.2z M200.6,46.5h3.2c2.8,0,4.9-0.8,6.9-2.4c2-1.6,2.4-3.6,2.4-6.5c0-4.9-2.4-6.9-7.7-6.9h-4.9V46.5
		L200.6,46.5z"/>
	<path fill="#111111" d="M245.8,84.4v-69h19v69H245.8z"/>
	<path fill="#111111" d="M312.9,29.5c-4.4,0-8.1,2-10.5,5.7s-3.6,8.5-3.6,15c0,13.3,5.3,19.8,15.4,19.8c3.2,0,6.1-0.4,8.9-1.2
		c2.8-0.8,5.7-2,8.5-3.2v15.8c-5.7,2.4-12.1,3.6-19.8,3.6c-10.5,0-18.6-3.2-23.9-9.3s-8.5-14.2-8.5-25.5c0-7.3,1.2-13.3,4-19
		c2.8-5.7,6.5-9.7,11.7-12.5c5.3-2.8,10.9-4.4,17.8-4.4c7.7,0,14.6,1.6,21.4,4.9l-5.7,14.6c-2.4-1.2-5.3-2-7.7-3.2
		C318.6,29.1,315.7,29.5,312.9,29.5z"/>
	<path fill="#111111" d="M388.4,84.4h-41.2v-69h41.2v15h-22.2v10.9h20.6v15h-20.6v12.9h22.2V84.4z"/>
	<path fill="#111111" d="M413.1,84.4H405v-69h38.8v7.3h-30.7v25.5h28.7v7.3h-28.7V84.4z"/>
	<path fill="#111111" d="M500.7,84.4l-8.5-21.8h-27.9l-8.5,21.8h-8.1L475.2,15h6.9l27.1,69.4H500.7z M489.8,55.3l-8.1-21.4
		c-1.2-2.8-2-6.1-3.2-10.1c-0.8,3.2-1.6,6.5-2.8,10.1l-8.1,21.4H489.8z"/>
	<path fill="#111111" d="M550.7,21.4c-7.7,0-13.7,2.4-18.2,7.7c-4.4,5.3-6.5,12.1-6.5,21s2,16.2,6.5,21c4.4,4.9,10.1,7.3,18.2,7.3
		c4.9,0,10.5-0.8,16.6-2.4v6.9c-4.9,1.6-10.9,2.8-17.8,2.8c-10.1,0-18.2-3.2-23.5-9.3c-5.3-6.1-8.5-15-8.5-26.3
		c0-7.3,1.2-13.3,4-18.6s6.5-9.7,11.7-12.5c5.3-2.8,10.9-4.4,17.8-4.4c7.3,0,13.7,1.2,19,4l-3.2,6.9
		C561.2,22.7,555.9,21.4,550.7,21.4z"/>
	<path fill="#111111" d="M605.9,84.4h-8.1V22.7H576v-7.3h51.6v7.3h-21.7V84.4L605.9,84.4z"/>
	<path fill="#111111" d="M700.8,49.7c0,10.9-2.8,19.8-8.5,26.3c-5.7,6.5-13.3,9.7-23.5,9.7c-10.1,0-18.2-3.2-23.5-9.3
		s-8.5-15-8.5-26.3s2.8-20.2,8.5-26.3s13.3-9.3,23.9-9.3c10.1,0,17.8,3.2,23.5,9.3C698.4,29.9,700.8,38.8,700.8,49.7z M645.6,49.7
		c0,9.3,2,16.6,6.1,21.4s9.7,7.3,17.4,7.3c7.7,0,13.3-2.4,17.4-7.3s6.1-12.1,6.1-21.4s-2-16.6-5.7-21c-3.6-4.4-9.7-7.3-17.4-7.3
		c-7.7,0-13.3,2.4-17.4,7.3C648,33.6,645.6,40.4,645.6,49.7z"/>
	<path fill="#111111" d="M726.7,55.7v28.7h-8.1v-69h19c8.5,0,15,1.6,19,4.9s6.1,8.1,6.1,14.6c0,9.3-4.4,15.4-13.7,18.6l19,31.1h-9.7
		l-16.6-28.7C741.7,55.7,726.7,55.7,726.7,55.7z M726.7,48.9h10.9c5.7,0,9.7-1.2,12.5-3.2c2.8-2,4-5.7,4-10.1s-1.2-7.7-4-9.7
		s-6.9-3.2-12.9-3.2h-10.5V48.9z"/>
	<path fill="#111111" d="M798.6,50.1l18.6-34.8h8.9l-23,42.5v26.7h-8.1V57.8l-23-42.9h8.9L798.6,50.1z"/>
</g>
</svg>
